<svg width="158" height="28" viewBox="0 0 158 28" fill="none" xmlns="http://www.w3.org/2000/svg">
<path d="M17.3039 7.12537H6.83965V9.36771H17.3039V7.12537ZM6.83965 12.3575H17.3039V14.5999H6.83965V12.3575ZM17.3039 17.5896H6.83965V19.832H17.3039V17.5896Z" fill="#090700"/>
<path d="M19.6531 2H4.70408C3.91114 2 3.15067 2.315 2.58998 2.87569C2.02928 3.43639 1.71429 4.19685 1.71429 4.98979V22.9286C1.71429 23.7215 2.02928 24.482 2.58998 25.0427C3.15067 25.6034 3.91114 25.9184 4.70408 25.9184H19.6531C20.446 25.9184 21.2065 25.6034 21.7672 25.0427C22.3279 24.482 22.6429 23.7215 22.6429 22.9286V4.98979C22.6429 4.19685 22.3279 3.43639 21.7672 2.87569C21.2065 2.315 20.446 2 19.6531 2ZM4.70408 4.24235H19.6531C19.8513 4.24235 20.0414 4.3211 20.1816 4.46127C20.3218 4.60144 20.4005 4.79156 20.4005 4.98979V22.9286C20.4005 23.1268 20.3218 23.3169 20.1816 23.4571C20.0414 23.5973 19.8513 23.676 19.6531 23.676H4.70408C4.50585 23.676 4.31573 23.5973 4.17556 23.4571C4.03538 23.3169 3.95663 23.1268 3.95663 22.9286V4.98979C3.95663 4.79156 4.03538 4.60144 4.17556 4.46127C4.31573 4.3211 4.50585 4.24235 4.70408 4.24235Z" fill="#090700"/>
<path d="M40.6016 15.918H36.2539V13.1758H40.6016C41.2734 13.1758 41.8203 13.0664 42.2422 12.8477C42.6641 12.6211 42.9727 12.3086 43.168 11.9102C43.3633 11.5117 43.4609 11.0625 43.4609 10.5625C43.4609 10.0547 43.3633 9.58203 43.168 9.14453C42.9727 8.70703 42.6641 8.35547 42.2422 8.08984C41.8203 7.82422 41.2734 7.69141 40.6016 7.69141H37.4727V22H33.957V4.9375H40.6016C41.9375 4.9375 43.082 5.17969 44.0352 5.66406C44.9961 6.14063 45.7305 6.80078 46.2383 7.64453C46.7461 8.48828 47 9.45312 47 10.5391C47 11.6406 46.7461 12.5938 46.2383 13.3984C45.7305 14.2031 44.9961 14.8242 44.0352 15.2617C43.082 15.6992 41.9375 15.918 40.6016 15.918ZM55.9414 19.1406V13.4922C55.9414 13.0859 55.875 12.7383 55.7422 12.4492C55.6094 12.1523 55.4023 11.9219 55.1211 11.7578C54.8477 11.5938 54.4922 11.5117 54.0547 11.5117C53.6797 11.5117 53.3555 11.5781 53.082 11.7109C52.8086 11.8359 52.5977 12.0195 52.4492 12.2617C52.3008 12.4961 52.2266 12.7734 52.2266 13.0938H48.8516C48.8516 12.5547 48.9766 12.043 49.2266 11.5586C49.4766 11.0742 49.8398 10.6484 50.3164 10.2812C50.793 9.90625 51.3594 9.61328 52.0156 9.40234C52.6797 9.19141 53.4219 9.08594 54.2422 9.08594C55.2266 9.08594 56.1016 9.25 56.8672 9.57812C57.6328 9.90625 58.2344 10.3984 58.6719 11.0547C59.1172 11.7109 59.3398 12.5312 59.3398 13.5156V18.9414C59.3398 19.6367 59.3828 20.207 59.4688 20.6523C59.5547 21.0898 59.6797 21.4727 59.8438 21.8008V22H56.4336C56.2695 21.6562 56.1445 21.2266 56.0586 20.7109C55.9805 20.1875 55.9414 19.6641 55.9414 19.1406ZM56.3867 14.2773L56.4102 16.1875H54.5234C54.0781 16.1875 53.6914 16.2383 53.3633 16.3398C53.0352 16.4414 52.7656 16.5859 52.5547 16.7734C52.3438 16.9531 52.1875 17.1641 52.0859 17.4062C51.9922 17.6484 51.9453 17.9141 51.9453 18.2031C51.9453 18.4922 52.0117 18.7539 52.1445 18.9883C52.2773 19.2148 52.4688 19.3945 52.7188 19.5273C52.9688 19.6523 53.2617 19.7148 53.5977 19.7148C54.1055 19.7148 54.5469 19.6133 54.9219 19.4102C55.2969 19.207 55.5859 18.957 55.7891 18.6602C56 18.3633 56.1094 18.082 56.1172 17.8164L57.0078 19.2461C56.8828 19.5664 56.7109 19.8984 56.4922 20.2422C56.2812 20.5859 56.0117 20.9102 55.6836 21.2148C55.3555 21.5117 54.9609 21.7578 54.5 21.9531C54.0391 22.1406 53.4922 22.2344 52.8594 22.2344C52.0547 22.2344 51.3242 22.0742 50.668 21.7539C50.0195 21.4258 49.5039 20.9766 49.1211 20.4062C48.7461 19.8281 48.5586 19.1719 48.5586 18.4375C48.5586 17.7734 48.6836 17.1836 48.9336 16.668C49.1836 16.1523 49.5508 15.7188 50.0352 15.3672C50.5273 15.0078 51.1406 14.7383 51.875 14.5586C52.6094 14.3711 53.4609 14.2773 54.4297 14.2773H56.3867ZM69.9688 9.32031H73.0273V21.5781C73.0273 22.7344 72.7695 23.7148 72.2539 24.5195C71.7461 25.332 71.0352 25.9453 70.1211 26.3594C69.207 26.7812 68.1445 26.9922 66.9336 26.9922C66.4023 26.9922 65.8398 26.9219 65.2461 26.7812C64.6602 26.6406 64.0977 26.4219 63.5586 26.125C63.0273 25.8281 62.582 25.4531 62.2227 25L63.7109 23.0078C64.1016 23.4609 64.5547 23.8125 65.0703 24.0625C65.5859 24.3203 66.1562 24.4492 66.7812 24.4492C67.3906 24.4492 67.9062 24.3359 68.3281 24.1094C68.75 23.8906 69.0742 23.5664 69.3008 23.1367C69.5273 22.7148 69.6406 22.2031 69.6406 21.6016V12.25L69.9688 9.32031ZM61.4375 15.8125V15.5664C61.4375 14.5977 61.5547 13.7188 61.7891 12.9297C62.0312 12.1328 62.3711 11.4492 62.8086 10.8789C63.2539 10.3086 63.793 9.86719 64.4258 9.55469C65.0586 9.24219 65.7734 9.08594 66.5703 9.08594C67.4141 9.08594 68.1211 9.24219 68.6914 9.55469C69.2617 9.86719 69.7305 10.3125 70.0977 10.8906C70.4648 11.4609 70.75 12.1367 70.9531 12.918C71.1641 13.6914 71.3281 14.5391 71.4453 15.4609V16C71.3281 16.8828 71.1523 17.7031 70.918 18.4609C70.6836 19.2188 70.375 19.8828 69.9922 20.4531C69.6094 21.0156 69.1328 21.4531 68.5625 21.7656C68 22.0781 67.3281 22.2344 66.5469 22.2344C65.7656 22.2344 65.0586 22.0742 64.4258 21.7539C63.8008 21.4336 63.2656 20.9844 62.8203 20.4062C62.375 19.8281 62.0312 19.1484 61.7891 18.3672C61.5547 17.5859 61.4375 16.7344 61.4375 15.8125ZM64.8125 15.5664V15.8125C64.8125 16.3359 64.8633 16.8242 64.9648 17.2773C65.0664 17.7305 65.2227 18.1328 65.4336 18.4844C65.6523 18.8281 65.9219 19.0977 66.2422 19.293C66.5703 19.4805 66.957 19.5742 67.4023 19.5742C68.0195 19.5742 68.5234 19.4453 68.9141 19.1875C69.3047 18.9219 69.5977 18.5586 69.793 18.0977C69.9883 17.6367 70.1016 17.1055 70.1328 16.5039V14.9688C70.1172 14.4766 70.0508 14.0352 69.9336 13.6445C69.8164 13.2461 69.6523 12.9062 69.4414 12.625C69.2305 12.3438 68.957 12.125 68.6211 11.9688C68.2852 11.8125 67.8867 11.7344 67.4258 11.7344C66.9805 11.7344 66.5938 11.8359 66.2656 12.0391C65.9453 12.2344 65.6758 12.5039 65.457 12.8477C65.2461 13.1914 65.0859 13.5977 64.9766 14.0664C64.8672 14.5273 64.8125 15.0273 64.8125 15.5664ZM81.4883 22.2344C80.5039 22.2344 79.6211 22.0781 78.8398 21.7656C78.0586 21.4453 77.3945 21.0039 76.8477 20.4414C76.3086 19.8789 75.8945 19.2266 75.6055 18.4844C75.3164 17.7344 75.1719 16.9375 75.1719 16.0938V15.625C75.1719 14.6641 75.3086 13.7852 75.582 12.9883C75.8555 12.1914 76.2461 11.5 76.7539 10.9141C77.2695 10.3281 77.8945 9.87891 78.6289 9.56641C79.3633 9.24609 80.1914 9.08594 81.1133 9.08594C82.0117 9.08594 82.8086 9.23438 83.5039 9.53125C84.1992 9.82812 84.7812 10.25 85.25 10.7969C85.7266 11.3438 86.0859 12 86.3281 12.7656C86.5703 13.5234 86.6914 14.3672 86.6914 15.2969V16.7031H76.6133V14.4531H83.375V14.1953C83.375 13.7266 83.2891 13.3086 83.1172 12.9414C82.9531 12.5664 82.7031 12.2695 82.3672 12.0508C82.0312 11.832 81.6016 11.7227 81.0781 11.7227C80.6328 11.7227 80.25 11.8203 79.9297 12.0156C79.6094 12.2109 79.3477 12.4844 79.1445 12.8359C78.9492 13.1875 78.8008 13.6016 78.6992 14.0781C78.6055 14.5469 78.5586 15.0625 78.5586 15.625V16.0938C78.5586 16.6016 78.6289 17.0703 78.7695 17.5C78.918 17.9297 79.125 18.3008 79.3906 18.6133C79.6641 18.9258 79.9922 19.168 80.375 19.3398C80.7656 19.5117 81.207 19.5977 81.6992 19.5977C82.3086 19.5977 82.875 19.4805 83.3984 19.2461C83.9297 19.0039 84.3867 18.6406 84.7695 18.1562L86.4102 19.9375C86.1445 20.3203 85.7812 20.6875 85.3203 21.0391C84.8672 21.3906 84.3203 21.6797 83.6797 21.9062C83.0391 22.125 82.3086 22.2344 81.4883 22.2344ZM104.691 16.3398H108.195C108.125 17.4883 107.809 18.5078 107.246 19.3984C106.691 20.2891 105.914 20.9844 104.914 21.4844C103.922 21.9844 102.727 22.2344 101.328 22.2344C100.234 22.2344 99.2539 22.0469 98.3867 21.6719C97.5195 21.2891 96.7773 20.7422 96.1602 20.0312C95.5508 19.3203 95.0859 18.4609 94.7656 17.4531C94.4453 16.4453 94.2852 15.3164 94.2852 14.0664V12.8828C94.2852 11.6328 94.4492 10.5039 94.7773 9.49609C95.1133 8.48047 95.5898 7.61719 96.207 6.90625C96.832 6.19531 97.5781 5.64844 98.4453 5.26562C99.3125 4.88281 100.281 4.69141 101.352 4.69141C102.773 4.69141 103.973 4.94922 104.949 5.46484C105.934 5.98047 106.695 6.69141 107.234 7.59766C107.781 8.50391 108.109 9.53516 108.219 10.6914H104.703C104.664 10.0039 104.527 9.42188 104.293 8.94531C104.059 8.46094 103.703 8.09766 103.227 7.85547C102.758 7.60547 102.133 7.48047 101.352 7.48047C100.766 7.48047 100.254 7.58984 99.8164 7.80859C99.3789 8.02734 99.0117 8.35938 98.7148 8.80469C98.418 9.25 98.1953 9.8125 98.0469 10.4922C97.9062 11.1641 97.8359 11.9531 97.8359 12.8594V14.0664C97.8359 14.9492 97.9023 15.7266 98.0352 16.3984C98.168 17.0625 98.3711 17.625 98.6445 18.0859C98.9258 18.5391 99.2852 18.8828 99.7227 19.1172C100.168 19.3438 100.703 19.457 101.328 19.457C102.062 19.457 102.668 19.3398 103.145 19.1055C103.621 18.8711 103.984 18.5234 104.234 18.0625C104.492 17.6016 104.645 17.0273 104.691 16.3398ZM109.754 15.7891V15.543C109.754 14.6133 109.887 13.7578 110.152 12.9766C110.418 12.1875 110.805 11.5039 111.312 10.9258C111.82 10.3477 112.445 9.89844 113.188 9.57812C113.93 9.25 114.781 9.08594 115.742 9.08594C116.703 9.08594 117.559 9.25 118.309 9.57812C119.059 9.89844 119.688 10.3477 120.195 10.9258C120.711 11.5039 121.102 12.1875 121.367 12.9766C121.633 13.7578 121.766 14.6133 121.766 15.543V15.7891C121.766 16.7109 121.633 17.5664 121.367 18.3555C121.102 19.1367 120.711 19.8203 120.195 20.4062C119.688 20.9844 119.062 21.4336 118.32 21.7539C117.578 22.0742 116.727 22.2344 115.766 22.2344C114.805 22.2344 113.949 22.0742 113.199 21.7539C112.457 21.4336 111.828 20.9844 111.312 20.4062C110.805 19.8203 110.418 19.1367 110.152 18.3555C109.887 17.5664 109.754 16.7109 109.754 15.7891ZM113.129 15.543V15.7891C113.129 16.3203 113.176 16.8164 113.27 17.2773C113.363 17.7383 113.512 18.1445 113.715 18.4961C113.926 18.8398 114.199 19.1094 114.535 19.3047C114.871 19.5 115.281 19.5977 115.766 19.5977C116.234 19.5977 116.637 19.5 116.973 19.3047C117.309 19.1094 117.578 18.8398 117.781 18.4961C117.984 18.1445 118.133 17.7383 118.227 17.2773C118.328 16.8164 118.379 16.3203 118.379 15.7891V15.543C118.379 15.0273 118.328 14.543 118.227 14.0898C118.133 13.6289 117.98 13.2227 117.77 12.8711C117.566 12.5117 117.297 12.2305 116.961 12.0273C116.625 11.8242 116.219 11.7227 115.742 11.7227C115.266 11.7227 114.859 11.8242 114.523 12.0273C114.195 12.2305 113.926 12.5117 113.715 12.8711C113.512 13.2227 113.363 13.6289 113.27 14.0898C113.176 14.543 113.129 15.0273 113.129 15.543ZM131.34 18.9648V9.32031H134.715V22H131.539L131.34 18.9648ZM131.715 16.3633L132.711 16.3398C132.711 17.1836 132.613 17.9688 132.418 18.6953C132.223 19.4141 131.93 20.0391 131.539 20.5703C131.148 21.0938 130.656 21.5039 130.062 21.8008C129.469 22.0898 128.77 22.2344 127.965 22.2344C127.348 22.2344 126.777 22.1484 126.254 21.9766C125.738 21.7969 125.293 21.5195 124.918 21.1445C124.551 20.7617 124.262 20.2734 124.051 19.6797C123.848 19.0781 123.746 18.3555 123.746 17.5117V9.32031H127.121V17.5352C127.121 17.9102 127.164 18.2266 127.25 18.4844C127.344 18.7422 127.473 18.9531 127.637 19.1172C127.801 19.2812 127.992 19.3984 128.211 19.4688C128.438 19.5391 128.688 19.5742 128.961 19.5742C129.656 19.5742 130.203 19.4336 130.602 19.1523C131.008 18.8711 131.293 18.4883 131.457 18.0039C131.629 17.5117 131.715 16.9648 131.715 16.3633ZM140.598 12.0273V22H137.223V9.32031H140.387L140.598 12.0273ZM140.105 15.2148H139.191C139.191 14.2773 139.312 13.4336 139.555 12.6836C139.797 11.9258 140.137 11.2812 140.574 10.75C141.012 10.2109 141.531 9.80078 142.133 9.51953C142.742 9.23047 143.422 9.08594 144.172 9.08594C144.766 9.08594 145.309 9.17188 145.801 9.34375C146.293 9.51562 146.715 9.78906 147.066 10.1641C147.426 10.5391 147.699 11.0352 147.887 11.6523C148.082 12.2695 148.18 13.0234 148.18 13.9141V22H144.781V13.9023C144.781 13.3398 144.703 12.9023 144.547 12.5898C144.391 12.2773 144.16 12.0586 143.855 11.9336C143.559 11.8008 143.191 11.7344 142.754 11.7344C142.301 11.7344 141.906 11.8242 141.57 12.0039C141.242 12.1836 140.969 12.4336 140.75 12.7539C140.539 13.0664 140.379 13.4336 140.27 13.8555C140.16 14.2773 140.105 14.7305 140.105 15.2148ZM156.957 9.32031V11.7109H149.574V9.32031H156.957ZM151.402 6.19141H154.777V18.1797C154.777 18.5469 154.824 18.8281 154.918 19.0234C155.02 19.2188 155.168 19.3555 155.363 19.4336C155.559 19.5039 155.805 19.5391 156.102 19.5391C156.312 19.5391 156.5 19.5312 156.664 19.5156C156.836 19.4922 156.98 19.4688 157.098 19.4453L157.109 21.9297C156.82 22.0234 156.508 22.0977 156.172 22.1523C155.836 22.207 155.465 22.2344 155.059 22.2344C154.316 22.2344 153.668 22.1133 153.113 21.8711C152.566 21.6211 152.145 21.2227 151.848 20.6758C151.551 20.1289 151.402 19.4102 151.402 18.5195V6.19141Z" fill="#090700"/>
</svg>
