<svg width="120" height="28" viewBox="0 0 120 28" fill="none" xmlns="http://www.w3.org/2000/svg">
<g clip-path="url(#clip0_442_1209)">
<path d="M10.909 8.54552C11.5115 8.54552 11.9999 8.0571 11.9999 7.45461C11.9999 6.85212 11.5115 6.36371 10.909 6.36371C10.3066 6.36371 9.81814 6.85212 9.81814 7.45461C9.81814 8.0571 10.3066 8.54552 10.909 8.54552Z" fill="#090700"/>
<path d="M4.36361 19.4546H17.4545V21.6364H4.36361V19.4546ZM8.72723 13.8146L11.773 16.8626L16.0625 12.5699L17.4545 14V9.63641H13.0909L14.5199 11.0273L11.772 13.7753L8.72723 10.7273L4.36361 15.0909L5.90615 16.6335L8.72723 13.8146Z" fill="#090700"/>
<path d="M18.5454 4.18189H14.9476C14.8395 4.02126 14.723 3.86649 14.5985 3.71825L14.5876 3.70516C13.7858 2.77197 12.6583 2.17972 11.4349 2.04917C11.0874 1.98361 10.7307 1.98361 10.3832 2.04917C9.15985 2.17972 8.03232 2.77197 7.23052 3.70516L7.21961 3.71825C7.09514 3.86614 6.97861 4.02054 6.87053 4.1808V4.18189H3.27272C2.405 4.18275 1.57308 4.52783 0.959514 5.1414C0.345948 5.75497 0.000866414 6.58689 0 7.4546V22.7273C0.000866414 23.595 0.345948 24.4269 0.959514 25.0405C1.57308 25.6541 2.405 25.9991 3.27272 26H18.5454C19.4131 25.9991 20.245 25.6541 20.8586 25.0405C21.4722 24.4269 21.8172 23.595 21.8181 22.7273V7.4546C21.8172 6.58689 21.4722 5.75497 20.8586 5.1414C20.245 4.52783 19.4131 4.18275 18.5454 4.18189ZM19.6363 22.7273C19.6363 23.0166 19.5214 23.2941 19.3168 23.4987C19.1122 23.7033 18.8347 23.8182 18.5454 23.8182H3.27272C2.98339 23.8182 2.70592 23.7033 2.50133 23.4987C2.29675 23.2941 2.18181 23.0166 2.18181 22.7273V7.4546C2.18181 7.16528 2.29675 6.8878 2.50133 6.68322C2.70592 6.47863 2.98339 6.3637 3.27272 6.3637H8.23634C8.36153 5.74718 8.69601 5.1929 9.1831 4.79477C9.6702 4.39664 10.28 4.17915 10.9091 4.17915C11.5382 4.17915 12.1479 4.39664 12.635 4.79477C13.1221 5.1929 13.4566 5.74718 13.5818 6.3637H18.5454C18.8347 6.3637 19.1122 6.47863 19.3168 6.68322C19.5214 6.8878 19.6363 7.16528 19.6363 7.4546V22.7273Z" fill="#090700"/>
</g>
<path d="M38.1619 15.918H33.8142V13.1758H38.1619C38.8337 13.1758 39.3806 13.0664 39.8025 12.8477C40.2244 12.6211 40.533 12.3086 40.7283 11.9102C40.9236 11.5117 41.0212 11.0625 41.0212 10.5625C41.0212 10.0547 40.9236 9.58203 40.7283 9.14453C40.533 8.70703 40.2244 8.35547 39.8025 8.08984C39.3806 7.82422 38.8337 7.69141 38.1619 7.69141H35.033V22H31.5173V4.9375H38.1619C39.4978 4.9375 40.6423 5.17969 41.5955 5.66406C42.5564 6.14063 43.2908 6.80078 43.7986 7.64453C44.3064 8.48828 44.5603 9.45312 44.5603 10.5391C44.5603 11.6406 44.3064 12.5938 43.7986 13.3984C43.2908 14.2031 42.5564 14.8242 41.5955 15.2617C40.6423 15.6992 39.4978 15.918 38.1619 15.918ZM50.1501 12.0859V22H46.7751V9.32031H49.9509L50.1501 12.0859ZM53.9705 9.23828L53.9119 12.3672C53.7478 12.3438 53.5486 12.3242 53.3142 12.3086C53.0876 12.2852 52.8806 12.2734 52.6931 12.2734C52.2166 12.2734 51.8025 12.3359 51.4509 12.4609C51.1072 12.5781 50.8181 12.7539 50.5837 12.9883C50.3572 13.2227 50.1853 13.5078 50.0681 13.8438C49.9587 14.1797 49.8962 14.5625 49.8806 14.9922L49.2009 14.7812C49.2009 13.9609 49.283 13.207 49.447 12.5195C49.6111 11.8242 49.8494 11.2188 50.1619 10.7031C50.4822 10.1875 50.8728 9.78906 51.3337 9.50781C51.7947 9.22656 52.322 9.08594 52.9158 9.08594C53.1033 9.08594 53.2947 9.10156 53.49 9.13281C53.6853 9.15625 53.8455 9.19141 53.9705 9.23828ZM54.6736 15.7891V15.543C54.6736 14.6133 54.8064 13.7578 55.072 12.9766C55.3376 12.1875 55.7244 11.5039 56.2322 10.9258C56.74 10.3477 57.365 9.89844 58.1072 9.57812C58.8494 9.25 59.7009 9.08594 60.6619 9.08594C61.6228 9.08594 62.4783 9.25 63.2283 9.57812C63.9783 9.89844 64.6072 10.3477 65.115 10.9258C65.6306 11.5039 66.0212 12.1875 66.2869 12.9766C66.5525 13.7578 66.6853 14.6133 66.6853 15.543V15.7891C66.6853 16.7109 66.5525 17.5664 66.2869 18.3555C66.0212 19.1367 65.6306 19.8203 65.115 20.4062C64.6072 20.9844 63.9822 21.4336 63.24 21.7539C62.4978 22.0742 61.6462 22.2344 60.6853 22.2344C59.7244 22.2344 58.8689 22.0742 58.1189 21.7539C57.3767 21.4336 56.7478 20.9844 56.2322 20.4062C55.7244 19.8203 55.3376 19.1367 55.072 18.3555C54.8064 17.5664 54.6736 16.7109 54.6736 15.7891ZM58.0486 15.543V15.7891C58.0486 16.3203 58.0955 16.8164 58.1892 17.2773C58.283 17.7383 58.4314 18.1445 58.6345 18.4961C58.8455 18.8398 59.1189 19.1094 59.4548 19.3047C59.7908 19.5 60.2009 19.5977 60.6853 19.5977C61.1541 19.5977 61.5564 19.5 61.8923 19.3047C62.2283 19.1094 62.4978 18.8398 62.7009 18.4961C62.9041 18.1445 63.0525 17.7383 63.1462 17.2773C63.2478 16.8164 63.2986 16.3203 63.2986 15.7891V15.543C63.2986 15.0273 63.2478 14.543 63.1462 14.0898C63.0525 13.6289 62.9001 13.2227 62.6892 12.8711C62.4861 12.5117 62.2166 12.2305 61.8806 12.0273C61.5447 11.8242 61.1384 11.7227 60.6619 11.7227C60.1853 11.7227 59.7791 11.8242 59.4431 12.0273C59.115 12.2305 58.8455 12.5117 58.6345 12.8711C58.4314 13.2227 58.283 13.6289 58.1892 14.0898C58.0955 14.543 58.0486 15.0273 58.0486 15.543ZM68.947 9.32031H72.3337V22.7617C72.3337 23.6992 72.1619 24.4922 71.8181 25.1406C71.4744 25.7891 70.9783 26.2812 70.3298 26.6172C69.6814 26.9531 68.8962 27.1211 67.9744 27.1211C67.6853 27.1211 67.4041 27.1055 67.1306 27.0742C66.8494 27.043 66.5603 26.9922 66.2634 26.9219L66.2751 24.332C66.4626 24.3633 66.6462 24.3867 66.8259 24.4023C66.9978 24.4258 67.1736 24.4375 67.3533 24.4375C67.7048 24.4375 67.9978 24.3789 68.2322 24.2617C68.4666 24.1445 68.6423 23.9609 68.7595 23.7109C68.8845 23.4688 68.947 23.1523 68.947 22.7617V9.32031ZM68.6775 6.01562C68.6775 5.52344 68.8494 5.11719 69.1931 4.79688C69.5447 4.47656 70.0056 4.31641 70.5759 4.31641C71.1541 4.31641 71.615 4.47656 71.9587 4.79688C72.3025 5.11719 72.4744 5.52344 72.4744 6.01562C72.4744 6.50781 72.3025 6.91406 71.9587 7.23438C71.615 7.55469 71.1541 7.71484 70.5759 7.71484C70.0056 7.71484 69.5447 7.55469 69.1931 7.23438C68.8494 6.91406 68.6775 6.50781 68.6775 6.01562ZM80.8533 22.2344C79.8689 22.2344 78.9861 22.0781 78.2048 21.7656C77.4236 21.4453 76.7595 21.0039 76.2126 20.4414C75.6736 19.8789 75.2595 19.2266 74.9705 18.4844C74.6814 17.7344 74.5369 16.9375 74.5369 16.0938V15.625C74.5369 14.6641 74.6736 13.7852 74.947 12.9883C75.2205 12.1914 75.6111 11.5 76.1189 10.9141C76.6345 10.3281 77.2595 9.87891 77.9939 9.56641C78.7283 9.24609 79.5564 9.08594 80.4783 9.08594C81.3767 9.08594 82.1736 9.23438 82.8689 9.53125C83.5642 9.82812 84.1462 10.25 84.615 10.7969C85.0916 11.3438 85.4509 12 85.6931 12.7656C85.9353 13.5234 86.0564 14.3672 86.0564 15.2969V16.7031H75.9783V14.4531H82.74V14.1953C82.74 13.7266 82.6541 13.3086 82.4822 12.9414C82.3181 12.5664 82.0681 12.2695 81.7322 12.0508C81.3962 11.832 80.9666 11.7227 80.4431 11.7227C79.9978 11.7227 79.615 11.8203 79.2947 12.0156C78.9744 12.2109 78.7126 12.4844 78.5095 12.8359C78.3142 13.1875 78.1658 13.6016 78.0642 14.0781C77.9705 14.5469 77.9236 15.0625 77.9236 15.625V16.0938C77.9236 16.6016 77.9939 17.0703 78.1345 17.5C78.283 17.9297 78.49 18.3008 78.7556 18.6133C79.0291 18.9258 79.3572 19.168 79.74 19.3398C80.1306 19.5117 80.572 19.5977 81.0642 19.5977C81.6736 19.5977 82.24 19.4805 82.7634 19.2461C83.2947 19.0039 83.7517 18.6406 84.1345 18.1562L85.7751 19.9375C85.5095 20.3203 85.1462 20.6875 84.6853 21.0391C84.2322 21.3906 83.6853 21.6797 83.0447 21.9062C82.4041 22.125 81.6736 22.2344 80.8533 22.2344ZM93.2166 19.5977C93.6306 19.5977 93.9978 19.5195 94.3181 19.3633C94.6384 19.1992 94.8884 18.9727 95.0681 18.6836C95.2556 18.3867 95.3533 18.0391 95.3611 17.6406H98.5369C98.5291 18.5312 98.2908 19.3242 97.822 20.0195C97.3533 20.707 96.7244 21.25 95.9353 21.6484C95.1462 22.0391 94.2634 22.2344 93.2869 22.2344C92.3025 22.2344 91.4431 22.0703 90.7087 21.7422C89.9822 21.4141 89.3767 20.9609 88.8923 20.3828C88.408 19.7969 88.0447 19.1172 87.8025 18.3438C87.5603 17.5625 87.4392 16.7266 87.4392 15.8359V15.4961C87.4392 14.5977 87.5603 13.7617 87.8025 12.9883C88.0447 12.207 88.408 11.5273 88.8923 10.9492C89.3767 10.3633 89.9822 9.90625 90.7087 9.57812C91.4353 9.25 92.2869 9.08594 93.2634 9.08594C94.3025 9.08594 95.2126 9.28516 95.9939 9.68359C96.783 10.082 97.4001 10.6523 97.8455 11.3945C98.2986 12.1289 98.5291 13 98.5369 14.0078H95.3611C95.3533 13.5859 95.2634 13.2031 95.0916 12.8594C94.9275 12.5156 94.6853 12.2422 94.365 12.0391C94.0525 11.8281 93.6658 11.7227 93.2048 11.7227C92.7126 11.7227 92.3103 11.8281 91.9978 12.0391C91.6853 12.2422 91.4431 12.5234 91.2712 12.8828C91.0994 13.2344 90.9783 13.6367 90.908 14.0898C90.8455 14.5352 90.8142 15.0039 90.8142 15.4961V15.8359C90.8142 16.3281 90.8455 16.8008 90.908 17.2539C90.9705 17.707 91.0876 18.1094 91.2595 18.4609C91.4392 18.8125 91.6853 19.0898 91.9978 19.293C92.3103 19.4961 92.7166 19.5977 93.2166 19.5977ZM106.705 9.32031V11.7109H99.322V9.32031H106.705ZM101.15 6.19141H104.525V18.1797C104.525 18.5469 104.572 18.8281 104.666 19.0234C104.767 19.2188 104.916 19.3555 105.111 19.4336C105.306 19.5039 105.552 19.5391 105.849 19.5391C106.06 19.5391 106.248 19.5312 106.412 19.5156C106.584 19.4922 106.728 19.4688 106.845 19.4453L106.857 21.9297C106.568 22.0234 106.256 22.0977 105.92 22.1523C105.584 22.207 105.213 22.2344 104.806 22.2344C104.064 22.2344 103.416 22.1133 102.861 21.8711C102.314 21.6211 101.892 21.2227 101.595 20.6758C101.299 20.1289 101.15 19.4102 101.15 18.5195V6.19141ZM115.482 18.4961C115.482 18.2539 115.412 18.0352 115.271 17.8398C115.131 17.6445 114.869 17.4648 114.486 17.3008C114.111 17.1289 113.568 16.9727 112.857 16.832C112.217 16.6914 111.619 16.5156 111.064 16.3047C110.517 16.0859 110.041 15.8242 109.635 15.5195C109.236 15.2148 108.924 14.8555 108.697 14.4414C108.47 14.0195 108.357 13.5391 108.357 13C108.357 12.4688 108.47 11.9688 108.697 11.5C108.931 11.0312 109.263 10.6172 109.693 10.2578C110.131 9.89062 110.662 9.60547 111.287 9.40234C111.92 9.19141 112.631 9.08594 113.42 9.08594C114.521 9.08594 115.467 9.26172 116.256 9.61328C117.052 9.96484 117.662 10.4492 118.084 11.0664C118.513 11.6758 118.728 12.3711 118.728 13.1523H115.353C115.353 12.8242 115.283 12.5312 115.142 12.2734C115.01 12.0078 114.799 11.8008 114.51 11.6523C114.228 11.4961 113.861 11.418 113.408 11.418C113.033 11.418 112.709 11.4844 112.435 11.6172C112.162 11.7422 111.951 11.9141 111.802 12.1328C111.662 12.3438 111.592 12.5781 111.592 12.8359C111.592 13.0312 111.631 13.207 111.709 13.3633C111.795 13.5117 111.931 13.6484 112.119 13.7734C112.306 13.8984 112.549 14.0156 112.845 14.125C113.15 14.2266 113.525 14.3203 113.97 14.4062C114.885 14.5938 115.701 14.8398 116.42 15.1445C117.138 15.4414 117.709 15.8477 118.131 16.3633C118.552 16.8711 118.763 17.5391 118.763 18.3672C118.763 18.9297 118.638 19.4453 118.388 19.9141C118.138 20.3828 117.779 20.793 117.31 21.1445C116.842 21.4883 116.279 21.7578 115.623 21.9531C114.974 22.1406 114.244 22.2344 113.431 22.2344C112.252 22.2344 111.252 22.0234 110.431 21.6016C109.619 21.1797 109.002 20.6445 108.58 19.9961C108.166 19.3398 107.959 18.668 107.959 17.9805H111.158C111.174 18.4414 111.291 18.8125 111.51 19.0938C111.736 19.375 112.021 19.5781 112.365 19.7031C112.717 19.8281 113.095 19.8906 113.502 19.8906C113.939 19.8906 114.302 19.832 114.592 19.7148C114.881 19.5898 115.099 19.4258 115.248 19.2227C115.404 19.0117 115.482 18.7695 115.482 18.4961Z" fill="#090700"/>
<defs>
<clipPath id="clip0_442_1209">
<rect width="21.8181" height="24" fill="white" transform="translate(0 2)"/>
</clipPath>
</defs>
</svg>
